solid Exported from Blender-3.4.1
facet normal -0.707107 0.000000 0.707107
outer loop
vertex -0.707107 -0.500000 0.000000
vertex 0.000000 -0.500000 0.707107
vertex 0.000000 0.500000 0.707107
endloop
endfacet
facet normal -0.707107 0.000000 0.707107
outer loop
vertex -0.707107 -0.500000 0.000000
vertex 0.000000 0.500000 0.707107
vertex -0.707107 0.500000 0.000000
endloop
endfacet
facet normal 0.000000 1.000000 0.000000
outer loop
vertex -0.707107 0.500000 0.000000
vertex 0.000000 0.500000 0.707107
vertex 0.707107 0.500000 0.000000
endloop
endfacet
facet normal 0.000000 1.000000 0.000000
outer loop
vertex -0.707107 0.500000 0.000000
vertex 0.707107 0.500000 0.000000
vertex 0.000000 0.500000 -0.707107
endloop
endfacet
facet normal 0.707107 0.000000 -0.707107
outer loop
vertex 0.000000 0.500000 -0.707107
vertex 0.707107 0.500000 0.000000
vertex 0.707107 -0.500000 0.000000
endloop
endfacet
facet normal 0.707107 0.000000 -0.707107
outer loop
vertex 0.000000 0.500000 -0.707107
vertex 0.707107 -0.500000 0.000000
vertex 0.000000 -0.500000 -0.707107
endloop
endfacet
facet normal 0.000000 -1.000000 0.000000
outer loop
vertex 0.000000 -0.500000 -0.707107
vertex 0.707107 -0.500000 0.000000
vertex 0.000000 -0.500000 0.707107
endloop
endfacet
facet normal 0.000000 -1.000000 0.000000
outer loop
vertex 0.000000 -0.500000 -0.707107
vertex 0.000000 -0.500000 0.707107
vertex -0.707107 -0.500000 0.000000
endloop
endfacet
facet normal -0.707107 0.000000 -0.707107
outer loop
vertex -0.707107 0.500000 0.000000
vertex 0.000000 0.500000 -0.707107
vertex 0.000000 -0.500000 -0.707107
endloop
endfacet
facet normal -0.707107 0.000000 -0.707107
outer loop
vertex -0.707107 0.500000 0.000000
vertex 0.000000 -0.500000 -0.707107
vertex -0.707107 -0.500000 0.000000
endloop
endfacet
facet normal 0.707107 0.000000 0.707107
outer loop
vertex 0.707107 0.500000 0.000000
vertex 0.000000 0.500000 0.707107
vertex 0.000000 -0.500000 0.707107
endloop
endfacet
facet normal 0.707107 0.000000 0.707107
outer loop
vertex 0.707107 0.500000 0.000000
vertex 0.000000 -0.500000 0.707107
vertex 0.707107 -0.500000 0.000000
endloop
endfacet
endsolid Exported from Blender-3.4.1
